<svg version="1.1" id="图层_1" xmlns="http://www.w3.org/2000/svg" xmlns:xlink="http://www.w3.org/1999/xlink" x="0px" y="0px" viewBox="0 0 20 20" style="enable-background:new 0 0 20 20" xml:space="preserve"> <g id="引用"> <path id="Combined-Shape" style="fill:#666" d="M9.002,6v1.357c-0.557,0.209-0.946,0.517-1.16,0.923
		C7.623,8.691,7.515,9.193,7.515,9.786l0,0v0.1h1.487L9,13H6.001l0.002-3.19C5.968,8.862,6.275,7.94,6.859,7.233
		C7.42,6.569,8.178,6.134,9.002,6L9.002,6z M14.002,6v1.357c-0.557,0.209-0.946,0.517-1.16,0.923
		c-0.219,0.411-0.327,0.913-0.327,1.507l0,0v0.1h1.487L14,13h-2.999l0.002-3.19c-0.034-0.948,0.273-1.87,0.856-2.578
		C12.42,6.569,13.178,6.134,14.002,6L14.002,6z"></path> </g> </svg>