<svg version="1.1" id="图层_1" xmlns="http://www.w3.org/2000/svg" xmlns:xlink="http://www.w3.org/1999/xlink" x="0px" y="0px" viewBox="0 0 20 20" style="enable-background:new 0 0 20 20" xml:space="preserve"> <g id="超链接-1"> <path id="形状结合" style="fill:#666" d="M10,7c1.105,0,2,0.895,2,2v1.553h-1.101L10.9,9c0-0.497-0.403-0.9-0.9-0.9H6
		C5.503,8.1,5.1,8.503,5.1,9v2c0,0.497,0.403,0.9,0.9,0.9h2.5V13H6c-1.105,0-2-0.895-2-2V9c0-1.105,0.895-2,2-2H10z M15,7
		c1.105,0,2,0.895,2,2v2c0,1.105-0.895,2-2,2h-4c-1.105,0-2-0.895-2-2V9.447h1.101L10.1,11c0,0.497,0.403,0.9,0.9,0.9h4
		c0.497,0,0.9-0.403,0.9-0.9V9c0-0.497-0.403-0.9-0.9-0.9h-2.5V7H15z"></path> </g> </svg>